<?xml version="1.0" standalone="no"?><!DOCTYPE svg PUBLIC "-//W3C//DTD SVG 1.1//EN" "http://www.w3.org/Graphics/SVG/1.1/DTD/svg11.dtd"><svg class="icon" width="200px" height="200.00px" viewBox="0 0 1024 1024" version="1.1" xmlns="http://www.w3.org/2000/svg"><path fill="#fff" d="M930.922 65.776c-17.408 0.637-62.443 2.784-124.701 9.398-71.983 7.648-181.075 22.982-294.222 52.653-113.1-29.851-222.167-45.359-294.14-53.123-62.195-6.708-107.204-8.928-124.642-9.595l-28.372-1.241V896.1h28.962c41.57 1.753 214.42 11.59 397.526 58.591v5.531h40v-5.497c183.163-46.705 356.014-56.269 397.614-57.958l28.977 0.045 1.329-832.231-28.331 1.195zM217.859 865.624c-51.314-5.535-90.927-8.014-113.014-9.087V105.696c55.566 2.841 216.479 14.433 386.488 58.075v749.666c-105.615-26.407-205.897-40.524-273.474-47.813z m700.128-8.437c-22.089 1.037-61.705 3.452-113.028 8.905-67.604 7.184-167.941 21.146-273.626 47.396V164.13c170.547-43.639 332.144-55.025 387.853-57.785l-1.199 750.842z" /></svg>