<?xml version="1.0" standalone="no"?><!DOCTYPE svg PUBLIC "-//W3C//DTD SVG 1.1//EN" "http://www.w3.org/Graphics/SVG/1.1/DTD/svg11.dtd"><svg class="icon" width="200px" height="168.84px" viewBox="0 0 1213 1024" version="1.1" xmlns="http://www.w3.org/2000/svg"><path fill="#fff" d="M1029.745396 950.859689V625.000254c0-14.468735-8.590219-27.572138-21.883251-33.431691l-345.884316-152.215647v511.506773h367.767567z m73.557306 0h73.557307c20.290363 0 36.769172 16.365031 36.769171 36.560579A36.674357 36.674357 0 0 1 1176.841046 1023.99981H36.788135A36.674357 36.674357 0 0 1 0 987.420268c0-20.195548 16.459846-36.560579 36.788135-36.560579h110.326477V329.140216c0-34.531543 16.346068-67.053012 44.126799-87.76056L485.451672 21.94033A110.743663 110.743663 0 0 1 551.632388 0.00019c60.94694 0 110.364404 49.114056 110.364404 109.719663V359.348205l375.618231 165.31905a109.681737 109.681737 0 0 1 65.687679 100.314036v325.859435z m-882.649747 0H588.420523V109.719853a36.674357 36.674357 0 0 0-36.788135-36.579542c-7.945479 0-15.682365 2.559999-22.053917 7.319701L235.368209 299.880375a36.50369 36.50369 0 0 0-14.715254 29.259841v621.719473z m110.345441-548.579352c0-20.195548 16.459846-36.560579 36.769171-36.560579 20.309326 0 36.788135 16.365031 36.788135 36.560579v68.987234a36.674357 36.674357 0 0 1-36.788135 36.560579 36.674357 36.674357 0 0 1-36.788134-36.560579v-68.987234z m0 219.439326c0-20.195548 16.459846-36.579542 36.769171-36.579542 20.309326 0 36.788135 16.383994 36.788135 36.579542v68.968271a36.674357 36.674357 0 0 1-36.788135 36.579542 36.674357 36.674357 0 0 1-36.788134-36.579542v-68.968271z m514.863217 73.140121c0-20.195548 16.459846-36.579542 36.788134-36.579542 20.290363 0 36.769172 16.383994 36.769172 36.579542v68.968271a36.674357 36.674357 0 0 1-36.788135 36.579542 36.674357 36.674357 0 0 1-36.769171-36.579542v-68.968271z" /></svg>