<?xml version="1.0" standalone="no"?><!DOCTYPE svg PUBLIC "-//W3C//DTD SVG 1.1//EN" "http://www.w3.org/Graphics/SVG/1.1/DTD/svg11.dtd"><svg class="icon" width="200px" height="200.00px" viewBox="0 0 1024 1024" version="1.1" xmlns="http://www.w3.org/2000/svg"><path fill="#fff" d="M896 426.666667h-42.666667c0-188.202667-153.130667-341.333333-341.333333-341.333334s-341.333333 153.130667-341.333333 341.333334H128a42.666667 42.666667 0 0 0-42.666667 42.666666v256a42.666667 42.666667 0 0 0 42.666667 42.666667h85.333333a42.666667 42.666667 0 0 0 42.666667-42.666667v-298.666666c0-141.184 114.816-256 256-256s256 114.816 256 256v426.666666h-170.666667a42.666667 42.666667 0 0 0-42.666666-42.666666h-85.333334a42.666667 42.666667 0 0 0-42.666666 42.666666v42.666667a42.666667 42.666667 0 0 0 42.666666 42.666667h341.333334a42.666667 42.666667 0 0 0 42.666666-42.666667v-128h42.666667a42.666667 42.666667 0 0 0 42.666667-42.666667v-256a42.666667 42.666667 0 0 0-42.666667-42.666666z"  /></svg>